<?xml version="1.0" encoding="utf-8"?>
<!-- Generator: Adobe Illustrator 19.0.0, SVG Export Plug-In . SVG Version: 6.00 Build 0)  -->
<svg version="1.1" id="Capa_1" xmlns="http://www.w3.org/2000/svg" xmlns:xlink="http://www.w3.org/1999/xlink" x="0px" y="0px"
	 viewBox="-9 164.9 576 512" style="enable-background:new -9 164.9 576 512;" xml:space="preserve">
<style type="text/css">
	.st0{fill:#003365;stroke:#FFFFFF;stroke-width:2;stroke-miterlimit:10;}
</style>
<path class="st0" d="M244.3,200c6.1-11.8,1.5-26.3-10.2-32.4s-26.3-1.5-32.4,10.2l-93.1,179.1H23c-17.7,0-32,14.3-32,32
	s14.3,32,32,32l51.9,207.5c7.1,28.5,32.7,48.5,62.1,48.5h284c29.4,0,55-20,62.1-48.5L535,420.9c17.7,0,32-14.3,32-32s-14.3-32-32-32
	h-85.6l-93.1-179.1c-6.1-11.7-20.6-16.3-32.4-10.2s-16.3,20.6-10.2,32.4l81.6,156.9H162.7L244.3,200z M183,468.9v96
	c0,8.8-7.2,16-16,16s-16-7.2-16-16v-96c0-8.8,7.2-16,16-16S183,460.1,183,468.9z M279,452.9c8.8,0,16,7.2,16,16v96
	c0,8.8-7.2,16-16,16s-16-7.2-16-16v-96C263,460.1,270.2,452.9,279,452.9z M407,468.9v96c0,8.8-7.2,16-16,16s-16-7.2-16-16v-96
	c0-8.8,7.2-16,16-16S407,460.1,407,468.9z"/>
</svg>
